<svg width="68" height="19" viewBox="0 0 68 19" fill="none" xmlns="http://www.w3.org/2000/svg">
<g clip-path="url(#clip0_225_11337)">
<path d="M44.5886 1.0398H46.0892C46.3733 1.0398 46.6039 1.26273 46.6039 1.53846V14.5067C46.6039 14.7825 46.3733 15.0061 46.0892 15.0061H44.5894C44.5215 15.0058 44.4543 14.9927 44.3917 14.9675C44.3291 14.9423 44.2723 14.9055 44.2245 14.8592C44.1767 14.8129 44.1389 14.758 44.1132 14.6976C44.0875 14.6373 44.0744 14.5727 44.0747 14.5075V1.53846C44.0747 1.262 44.3053 1.03906 44.5894 1.03906L44.5886 1.0398ZM65.7811 13.6568H64.5089C63.8262 13.6568 63.1725 13.3943 62.6899 12.9264L61.284 11.5617C60.8006 11.0915 60.5298 10.4572 60.5303 9.79653V8.5792C60.5303 8.1172 60.1447 7.7432 59.6689 7.7432H56.8786C56.8107 7.74358 56.7436 7.7568 56.681 7.78211C56.6184 7.80741 56.5617 7.84431 56.5139 7.89068C56.4662 7.93705 56.4285 7.992 56.4029 8.05238C56.3773 8.11276 56.3643 8.1774 56.3647 8.2426V10.9508C56.3647 11.4121 56.7503 11.7868 57.2253 11.7868H58.5174C59.2001 11.7868 59.8537 12.0493 60.3371 12.5172L61.7231 13.8629C62.2058 14.3307 62.4761 14.9658 62.4761 15.628V16.8644C62.4761 17.3264 62.8617 17.7004 63.3375 17.7004H66.1286C66.1964 17.7 66.2636 17.6868 66.3262 17.6615C66.3887 17.6362 66.4455 17.5993 66.4932 17.5529C66.5409 17.5065 66.5787 17.4516 66.6043 17.3912C66.6299 17.3308 66.6429 17.2662 66.6425 17.201V14.4928C66.6425 14.0308 66.2568 13.6568 65.7811 13.6568Z" fill="#000217"/>
<path d="M57.3558 0.799805C52.9351 0.799805 49.8096 4.09247 49.8096 8.02314V8.06274C49.8096 11.9934 52.8947 15.2457 57.3146 15.2457C58.2592 15.2457 59.1397 15.0881 59.9461 14.8101C60.0283 14.7806 60.1016 14.7317 60.1592 14.6681C60.2167 14.6044 60.2568 14.5279 60.2758 14.4456C60.2948 14.3632 60.292 14.2776 60.2678 14.1966C60.2435 14.1155 60.1986 14.0416 60.137 13.9815L59.0618 12.9379C58.9981 12.8767 58.9185 12.8329 58.8312 12.811C58.744 12.7891 58.6523 12.7899 58.5655 12.8133C58.1836 12.9115 57.7827 12.9709 57.3558 12.9709C54.4983 12.9709 52.4617 10.7357 52.4617 8.02314V7.9828C52.4617 5.26947 54.4563 3.0746 57.3146 3.0746C60.1729 3.0746 62.208 5.30907 62.208 8.02314V8.06274C62.208 8.75427 62.0706 9.4084 61.8285 10.0031C61.7891 10.0941 61.7783 10.1941 61.7973 10.2909C61.8163 10.3877 61.8643 10.477 61.9354 10.548L63.0946 11.6729C63.3412 11.912 63.7483 11.8445 63.9178 11.5483C64.5371 10.4686 64.8613 9.25578 64.8601 8.02314V7.9828C64.8601 4.05214 61.7766 0.799805 57.3566 0.799805H57.3558Z" fill="#000217"/>
<path fill-rule="evenodd" clip-rule="evenodd" d="M0.514696 1.03943C0.446805 1.03972 0.379637 1.05285 0.317029 1.07806C0.254421 1.10328 0.197598 1.14009 0.149804 1.1864C0.102011 1.2327 0.0641825 1.2876 0.0384799 1.34794C0.0127774 1.40829 -0.000296415 1.4729 5.09875e-06 1.5381V14.5064C5.09875e-06 14.7821 0.230623 15.0058 0.514696 15.0058H6.66197C9.86924 15.0058 11.9868 13.6689 11.9868 11.1748V11.1352C11.9868 9.23956 10.8154 8.30236 9.12928 7.74283C10.1984 7.20456 11.1857 6.30623 11.1857 4.63056V4.59096C11.1857 3.67356 10.8566 2.8955 10.219 2.27656C9.39655 1.47796 8.10142 1.03943 6.45579 1.03943H0.514696ZM8.65659 4.9899C8.65659 3.8921 7.75168 3.21376 6.12742 3.21376H2.48793V6.92443H5.94186C7.56688 6.92443 8.65659 6.30623 8.65659 5.0295V4.9899V4.9899ZM6.49702 9.0005H2.48793V12.8307H6.68259C8.38855 12.8307 9.4584 12.1729 9.4584 10.9152V10.8756C9.4584 9.69863 8.49164 9.0005 6.49702 9.0005V9.0005ZM21.8667 0.938965H20.1959C19.9912 0.938965 19.8064 1.0563 19.7247 1.2389L13.8409 14.3069C13.8064 14.3825 13.792 14.4651 13.7989 14.5473C13.8058 14.6296 13.8339 14.7089 13.8806 14.7781C13.9273 14.8474 13.9912 14.9044 14.0665 14.9442C14.1418 14.9839 14.2262 15.0051 14.3121 15.0058H15.7767C15.9829 15.0058 16.1692 14.8862 16.2502 14.7022L17.5972 11.6339H24.4028L25.7307 14.6992C25.8109 14.8855 25.998 15.0058 26.2049 15.0058H27.7498C27.8357 15.0051 27.9201 14.9839 27.9954 14.9442C28.0707 14.9044 28.1346 14.8474 28.1813 14.7781C28.228 14.7089 28.256 14.6296 28.263 14.5473C28.2699 14.4651 28.2554 14.3825 28.2209 14.3069L22.3379 1.2389C22.2984 1.15029 22.2327 1.07473 22.149 1.02156C22.0652 0.968391 21.9671 0.939932 21.8667 0.939698V0.938965ZM20.9901 3.8723L23.478 9.45883H18.522L20.9901 3.8723V3.8723Z" fill="#000217"/>
<path d="M30.1425 12.5854L31.0039 11.5917C31.0911 11.4929 31.2154 11.431 31.3497 11.4196C31.4841 11.4083 31.6178 11.4482 31.7217 11.5309C32.9756 12.4915 34.2722 13.0313 35.8736 13.0313C37.4367 13.0313 38.4241 12.3126 38.4241 11.2757V11.2353C38.4241 10.238 37.8476 9.699 35.1748 9.1006C32.1111 8.38193 30.3838 7.50413 30.3838 4.93013V4.89053C30.3838 2.4962 32.4403 0.840332 35.2978 0.840332C37.2054 0.840332 38.7555 1.35147 40.1186 2.29967C40.2273 2.37901 40.2996 2.49581 40.3203 2.62539C40.3409 2.75497 40.3083 2.8872 40.2294 2.99413L39.4581 4.04793C39.3794 4.15393 39.2601 4.22565 39.1264 4.24737C38.9927 4.26908 38.8555 4.23903 38.7449 4.1638C37.5895 3.41213 36.431 3.01466 35.2573 3.01466C33.7766 3.01466 32.913 3.75313 32.913 4.67126V4.71086C32.913 5.78813 33.5712 6.267 36.347 6.90573C39.3901 7.6244 40.9525 8.68113 40.9525 10.9955V11.0359C40.9525 13.6495 38.835 15.2056 35.8125 15.2056C33.7789 15.2056 31.8507 14.5749 30.2066 13.2982C30.1001 13.2116 30.0335 13.088 30.0215 12.9545C30.0095 12.8209 30.053 12.6883 30.1425 12.5854V12.5854Z" fill="#000217"/>
</g>
<defs>
<clipPath id="clip0_225_11337">
<rect width="67.2" height="17.6" fill="white" transform="translate(0 0.799805)"/>
</clipPath>
</defs>
</svg>
