<svg width="80" height="102" fill="none" xmlns="http://www.w3.org/2000/svg"><path d="M9 16C9 7.163 16.163 0 25 0h30c8.837 0 16 7.163 16 16v30c0 8.837-7.163 16-16 16H25c-8.837 0-16-7.163-16-16V16Z" fill="#fff"/><circle cx="33.868" cy="37.711" r="13.868" fill="#4737FF"/><mask id="a" style="mask-type:alpha" maskUnits="userSpaceOnUse" x="32" y="11" width="29" height="28"><circle cx="46.447" cy="24.868" r="13.868" fill="#1BCEC3"/></mask><g mask="url(#a)"><circle cx="33.868" cy="37.711" r="13.868" fill="#2C1ECB"/></g><circle cx="46.447" cy="24.868" r="13.868" fill="#0DE2BC"/><path d="M8.618 86c.912 0 1.742.22 2.487.662a4.762 4.762 0 0 1 1.803 1.757c.457.73.685 1.56.685 2.488a4.87 4.87 0 0 1-.707 2.58 5.262 5.262 0 0 1-1.918 1.825 5.115 5.115 0 0 1-2.602.685H3.003v5.98H.538V86h8.08Zm-.389 7.623c.503 0 .967-.121 1.393-.365.426-.258.76-.593 1.004-1.004.259-.41.388-.86.388-1.347 0-.471-.13-.897-.388-1.278a2.652 2.652 0 0 0-1.004-.913 2.903 2.903 0 0 0-1.393-.342H3.003v5.25h5.226ZM21.844 101.977h-2.351V86h2.35v15.977ZM36.858 86c.913 0 1.743.22 2.488.662a4.762 4.762 0 0 1 1.803 1.757c.457.73.685 1.56.685 2.488a4.87 4.87 0 0 1-.707 2.58 5.262 5.262 0 0 1-1.918 1.825 5.115 5.115 0 0 1-2.602.685h-5.363v5.98h-2.465V86h8.08Zm-.388 7.623c.502 0 .967-.121 1.393-.365.426-.258.76-.593 1.004-1.004.259-.41.388-.86.388-1.347 0-.471-.13-.897-.388-1.278a2.652 2.652 0 0 0-1.004-.913 2.903 2.903 0 0 0-1.393-.342h-5.226v5.25h5.226ZM47.346 86h11.846v2.374H49.81v4.222h8.125v2.374h-8.125v4.633h9.38v2.374H47.347V86ZM78.663 90.999c0 1.05-.327 2.008-.98 2.876a5.407 5.407 0 0 1-2.489 1.825l4.268 6.3-3.035-.023-3.995-5.934h-4.656v5.934h-2.465V86h8.217c.898 0 1.735.213 2.51.64a5.246 5.246 0 0 1 1.895 1.757c.487.745.73 1.612.73 2.602Zm-5.706-2.625h-5.18v5.295h5.477c.533 0 1.012-.122 1.438-.365.426-.259.76-.594 1.004-1.004a2.44 2.44 0 0 0 .388-1.324c0-.502-.144-.951-.433-1.347-.29-.395-.67-.7-1.142-.913a3.516 3.516 0 0 0-1.552-.342Z" fill="#fff"/></svg>