<svg fill="none" xmlns="http://www.w3.org/2000/svg" viewBox="0 0 78 118"><path d="M7.962 16c0-8.837 7.164-16 16-16h30c8.837 0 16 7.163 16 16v30c0 8.837-7.163 16-16 16h-30c-8.836 0-16-7.163-16-16V16Z" fill="#fff"/><circle cx="32.831" cy="37.71" r="13.868" fill="#23BD78"/><circle cx="45.41" cy="24.868" r="13.868" fill="#F1F5AC"/><path d="M8.367 86.223c.889 0 1.696.215 2.422.644.74.415 1.326.985 1.755 1.711.445.711.667 1.519.667 2.422a4.74 4.74 0 0 1-.689 2.511 5.123 5.123 0 0 1-1.866 1.778 4.98 4.98 0 0 1-2.534.667H2.9v5.822H.5V86.223h7.867Zm-.378 7.422c.489 0 .94-.119 1.355-.356.415-.252.741-.578.978-.978.252-.4.378-.837.378-1.31 0-.46-.126-.875-.378-1.245a2.58 2.58 0 0 0-.978-.889 2.826 2.826 0 0 0-1.355-.333H2.9v5.11h5.089ZM21.244 101.778h-2.289V86.223h2.289v15.555ZM35.862 86.223c.89 0 1.697.215 2.422.644.741.415 1.327.985 1.756 1.711.444.711.667 1.519.667 2.422 0 .919-.23 1.756-.69 2.511a5.123 5.123 0 0 1-1.866 1.778 4.98 4.98 0 0 1-2.533.667h-5.222v5.822h-2.4V86.223h7.866Zm-.378 7.422c.49 0 .941-.119 1.356-.356.415-.252.74-.578.978-.978.252-.4.378-.837.378-1.31 0-.46-.126-.875-.378-1.245a2.582 2.582 0 0 0-.978-.889 2.826 2.826 0 0 0-1.356-.333h-5.088v5.11h5.088ZM46.073 86.223h11.533v2.31h-9.133v4.112h7.911v2.311h-7.911v4.511h9.133v2.311H46.073V86.223ZM76.564 91.09c0 1.022-.318 1.955-.955 2.8a5.264 5.264 0 0 1-2.423 1.777l4.156 6.133-2.956-.022L70.498 96h-4.534v5.778h-2.4V86.223h8a5 5 0 0 1 2.445.622c.755.415 1.37.985 1.844 1.711.474.726.711 1.57.711 2.533Zm-5.555-2.556h-5.045v5.155h5.334c.518 0 .985-.118 1.4-.355.414-.252.74-.578.977-.978.252-.4.378-.83.378-1.289 0-.489-.14-.926-.422-1.311a2.748 2.748 0 0 0-1.111-.889 3.424 3.424 0 0 0-1.511-.333ZM10.254 115.511c.373.452.761.8 1.163 1.045.41.244.909.366 1.498.366.316 0 .617-.041.904-.122.295-.089.535-.219.722-.389a.854.854 0 0 0 .29-.655c0-.371-.19-.637-.57-.8-.38-.163-.916-.297-1.605-.4-.847-.134-1.522-.378-2.025-.734-.503-.363-.754-.889-.754-1.578 0-.466.133-.866.398-1.2.273-.333.64-.588 1.1-.766.459-.185.965-.278 1.518-.278.69 0 1.285.119 1.788.356.503.237.898.574 1.185 1.011l-.797.855a2.679 2.679 0 0 0-.916-.822c-.373-.215-.804-.322-1.292-.322-.503 0-.923.096-1.26.289-.338.185-.507.448-.507.789 0 .4.18.685.539.855.366.163.844.293 1.432.389.388.059.758.137 1.11.233.359.097.678.226.958.389.28.156.503.356.668.6.165.245.248.548.248.911 0 .497-.13.93-.388 1.3-.258.371-.628.66-1.11.867-.473.2-1.037.3-1.69.3-.697 0-1.325-.119-1.885-.356s-1.052-.622-1.476-1.155l.754-.978ZM25.44 110.1v4.389c0 .667-.147 1.263-.442 1.789a3.22 3.22 0 0 1-1.206 1.233c-.517.296-1.12.445-1.81.445-.682 0-1.285-.149-1.81-.445a3.299 3.299 0 0 1-1.216-1.233c-.287-.526-.431-1.122-.431-1.789V110.1h1.163v4.322c0 .459.104.871.313 1.234.208.355.484.633.829.833.352.2.736.3 1.153.3.445 0 .843-.1 1.195-.3.352-.2.632-.478.84-.833.209-.363.313-.775.313-1.234V110.1h1.11ZM28.547 115.511c.373.452.76.8 1.163 1.045.41.244.908.366 1.497.366.316 0 .618-.041.905-.122.294-.089.535-.219.721-.389a.854.854 0 0 0 .291-.655c0-.371-.19-.637-.57-.8-.381-.163-.916-.297-1.606-.4-.847-.134-1.522-.378-2.024-.734-.503-.363-.755-.889-.755-1.578 0-.466.133-.866.399-1.2.273-.333.64-.588 1.099-.766.46-.185.966-.278 1.518-.278.69 0 1.286.119 1.789.356.502.237.897.574 1.184 1.011l-.797.855a2.679 2.679 0 0 0-.915-.822c-.374-.215-.804-.322-1.293-.322-.502 0-.923.096-1.26.289-.338.185-.506.448-.506.789 0 .4.18.685.538.855.366.163.844.293 1.433.389.388.059.757.137 1.11.233.358.097.678.226.958.389.28.156.503.356.668.6.165.245.248.548.248.911 0 .497-.13.93-.388 1.3-.259.371-.629.66-1.11.867-.474.2-1.037.3-1.69.3-.697 0-1.326-.119-1.886-.356-.56-.237-1.052-.622-1.476-1.155l.755-.978ZM38.68 117.889v-6.622H36.14v-1.156h6.301v1.156h-2.596v6.622h-1.163ZM50.031 117.889l-.808-1.867h-3.867l-.807 1.867h-1.207l3.34-7.778h1.281l3.329 7.778h-1.26Zm-3.328-5.022-.851 2h2.876l-.873-2.045a19.86 19.86 0 0 1-.57-1.466c-.094.274-.19.537-.291.788-.094.252-.19.493-.291.723ZM54.827 117.889h-1.11v-7.778h1.11v7.778ZM64.337 110.111H65.5v7.778h-1.131l-5.3-6.045.13 1.412c.043.466.064.933.064 1.4v3.233H58.1v-7.778h1.11l5.299 6.189a23.927 23.927 0 0 1-.162-2.433c-.007-.423-.01-.823-.01-1.2v-2.556Z" fill="#182041"/></svg>