<svg version="1.0" xmlns="http://www.w3.org/2000/svg" width="933.333" height="933.333" viewBox="0 0 700 700"><path d="M425.8 54.5c-.2.2-2.5.6-5.3.9-9.9 1.2-12.9 1.7-22.9 4.1-45.7 10.9-86.7 37.9-114.7 75.5-9.7 13-16.9 25.4-23.3 40-8.6 19.5-14.4 41.8-16.2 61.5-.3 3.3-.7 6.1-.8 6.3-.2.1-2.5.4-5.2.7-4.1.5-15.4 2.4-22.9 3.9-12.6 2.6-28.9 8.3-44 15.6-60.1 29-103.3 88.2-112 153.5-.4 2.7-.9 6.3-1.1 8-.7 4.5-.7 35.5-.1 39 .3 1.6.8 5.2 1.2 8 .3 2.7.7 5.9.9 7 2.9 14.1 4.2 19 7.1 28 5.1 15.4 10.3 26.7 18.8 41 24.8 41.4 64 72.7 109.7 87.9 23.7 7.8 38.2 10.1 64.5 10.1 20.3 0 27.5-.7 42.9-3.9 38.8-8.2 73.3-27.1 101.6-55.5 21.1-21.2 35.4-43.3 46.1-71 2.6-6.8 6.5-19.3 7.4-23.9.2-.9 1-5.1 1.8-9.2 1.4-6.8 3-17.4 3.1-20.9.1-.8 1-1.5 2.1-1.7 1.1-.1 4-.5 6.5-.9 35.3-4.7 73.1-20.9 99-42.4 31.2-25.8 53.5-58 65.5-94.3 2.4-7.5 4.6-14.6 4.9-15.9 2.8-14.3 3.7-19.2 4.3-24.4 1-7.6 1-42.4 0-49-4.9-34.3-15.3-62.2-32.9-88.5-32.7-48.8-83.8-80.7-141.3-88.4-8.6-1.2-43.7-2-44.7-1.1z"/></svg>